<svg width="37" height="37" viewBox="0 0 37 37" fill="none" xmlns="http://www.w3.org/2000/svg">
<path d="M9.57054 13.061C9.34854 11.433 9.8912 9.68166 10.9889 8.38666C12.9499 5.994 15.5645 6.105 15.6632 5.994C15.5522 5.883 14.7875 4.46466 13.7022 5.34033L1.51687 14.7013C1.29487 14.9233 1.08521 15.133 1.08521 15.466C1.08521 15.7867 1.08521 16.0087 1.30721 16.3417L4.35354 20.0417C4.57554 20.3623 4.89621 20.4733 5.22921 20.4733C5.45121 20.4733 5.66087 20.3623 5.88287 20.2513L10.0145 17.094L9.57054 13.061Z" fill="url(#paint0_linear_26_233)"/>
<path d="M26.1219 5.00733C25.8012 4.57566 25.0365 4.46467 24.5925 4.89633L23.1742 5.98167C23.4949 6.20367 23.7169 6.41333 24.0499 6.74633C33.7315 18.5 33.7315 18.167 34.1755 19.1537C35.2609 18.1793 35.9145 18.0683 35.9145 17.3037C36.0255 16.539 35.8035 16.872 26.1219 5.00733Z" fill="url(#paint1_linear_26_233)"/>
<path d="M22.3109 8.05367C22.0889 7.83167 21.7682 7.622 21.3365 7.733L15.4659 8.27566C14.3805 8.38666 13.2952 8.92933 12.6415 9.805C11.9879 10.6807 11.6672 11.766 11.7659 12.8513L12.3085 18.6233C12.5305 20.3623 13.8379 21.5587 15.4659 21.5587C16.2305 21.5587 17.0939 21.238 17.6365 20.5843C18.0682 20.0417 18.2902 19.388 18.2902 18.7343V14.9233C18.2902 14.7013 18.2902 14.6027 18.4012 14.4917C18.5122 14.3807 18.7219 14.3807 18.8329 14.6027C29.7109 27.5527 25.3572 24.938 31.5609 21.238C31.7829 21.016 31.8815 20.8063 31.9925 20.4733C31.9925 20.1527 31.8815 19.9307 31.7705 19.5977L22.3109 8.05367Z" fill="url(#paint2_linear_26_233)"/>
<path d="M20.4609 19.8073C20.2389 20.572 19.9182 21.3367 19.2645 21.978C18.2902 23.0633 16.8719 23.717 15.4535 23.717C12.9499 23.717 10.7792 21.978 10.2242 19.5853L7.06687 21.978C6.74621 22.2 6.52421 22.2987 6.19121 22.4097L9.34854 26.3317L13.3692 31.339C14.8985 33.3 17.7229 31.9927 18.3765 30.2537C19.3509 30.4757 21.1022 29.2793 21.5339 28.1817C21.6449 28.1817 22.5082 28.2927 23.2729 27.639L23.8155 27.2073C24.2472 26.8867 24.4692 26.5537 24.6912 26.122C24.9132 26.122 25.3449 26.122 25.7765 25.9C25.3572 25.789 24.9255 25.2463 20.4609 19.8073Z" fill="url(#paint3_linear_26_233)"/>
<defs>
<linearGradient id="paint0_linear_26_233" x1="18.5077" y1="32.3187" x2="18.5077" y2="4.62279" gradientUnits="userSpaceOnUse">
<stop stop-color="#5B4128"/>
<stop offset="0.494792" stop-color="#D4A65B"/>
<stop offset="1" stop-color="#FFEFA6"/>
</linearGradient>
<linearGradient id="paint1_linear_26_233" x1="18.5077" y1="32.3187" x2="18.5077" y2="4.62279" gradientUnits="userSpaceOnUse">
<stop stop-color="#5B4128"/>
<stop offset="0.494792" stop-color="#D4A65B"/>
<stop offset="1" stop-color="#FFEFA6"/>
</linearGradient>
<linearGradient id="paint2_linear_26_233" x1="18.5077" y1="32.3187" x2="18.5077" y2="4.62279" gradientUnits="userSpaceOnUse">
<stop stop-color="#5B4128"/>
<stop offset="0.494792" stop-color="#D4A65B"/>
<stop offset="1" stop-color="#FFEFA6"/>
</linearGradient>
<linearGradient id="paint3_linear_26_233" x1="18.5077" y1="32.3187" x2="18.5077" y2="4.62279" gradientUnits="userSpaceOnUse">
<stop stop-color="#5B4128"/>
<stop offset="0.494792" stop-color="#D4A65B"/>
<stop offset="1" stop-color="#FFEFA6"/>
</linearGradient>
</defs>
</svg>
