<svg width="37" height="37" viewBox="0 0 37 37" fill="none" xmlns="http://www.w3.org/2000/svg">
<path d="M2.84896 19.943C1.33196 18.056 0.480957 15.799 0.480957 13.468C0.480957 7.32599 6.10496 2.33099 13.024 2.33099C18.648 2.33099 23.384 5.62399 24.975 10.138C24.568 10.101 24.161 10.101 23.717 10.101C23.347 10.101 22.977 10.101 22.607 10.138C21.09 6.84499 17.353 4.51399 12.987 4.51399C7.28896 4.51399 2.62696 8.50999 2.62696 13.468C2.62696 15.503 3.40396 17.427 4.88396 19.055L5.32796 19.536L5.10596 20.165C4.92096 20.683 4.66196 21.201 4.32896 21.608C5.03196 21.497 5.66096 21.275 6.21596 20.942L6.77096 20.609L7.32596 20.905C7.84396 21.201 8.36196 21.423 8.91696 21.645C8.84296 22.237 8.76896 22.829 8.76896 23.458C8.76896 23.606 8.76896 23.754 8.76896 23.902C8.06596 23.68 7.39996 23.421 6.77096 23.088C5.77196 23.569 4.66196 23.791 3.47796 23.791C3.07096 23.791 2.66396 23.754 2.25696 23.717C1.66496 23.643 1.22096 23.199 1.07296 22.644C0.924957 22.052 1.18396 21.497 1.66496 21.164C2.18296 20.868 2.55296 20.461 2.84896 19.943ZM36.519 23.458C36.519 26.122 35.446 28.564 33.67 30.488C34.003 31.376 34.595 32.375 35.705 33.115C35.964 33.3 35.89 33.707 35.557 33.744C34.41 33.892 32.486 33.929 30.673 32.856C28.675 34.003 26.27 34.669 23.717 34.669C16.65 34.669 10.915 29.637 10.915 23.458C10.915 17.279 16.65 12.247 23.717 12.247C30.784 12.247 36.519 17.279 36.519 23.458ZM24.605 27.158C24.605 26.862 24.383 26.64 24.087 26.64H22.792C22.496 26.64 22.274 26.862 22.274 27.158V28.009C22.274 28.305 22.496 28.527 22.792 28.527H24.087C24.383 28.527 24.605 28.305 24.605 28.009V27.158ZM27.158 21.46C27.158 20.535 26.862 19.795 26.233 19.24C25.604 18.685 24.753 18.426 23.68 18.426C22.681 18.426 21.867 18.648 21.238 19.129C20.683 19.536 20.387 20.165 20.35 20.942C20.35 21.127 20.498 21.275 20.683 21.275L22.163 21.312C22.385 21.312 22.607 21.164 22.681 20.942C22.718 20.757 22.829 20.609 22.94 20.498C23.162 20.313 23.384 20.202 23.717 20.202C24.087 20.202 24.383 20.313 24.605 20.535C24.827 20.757 24.901 21.053 24.901 21.46C24.901 21.83 24.827 22.163 24.642 22.422C24.457 22.681 24.235 22.94 23.939 23.125C23.347 23.532 22.94 23.902 22.718 24.235C22.533 24.494 22.422 24.827 22.385 25.271C22.348 25.493 22.533 25.641 22.755 25.641H24.346C24.531 25.641 24.679 25.493 24.716 25.308C24.753 25.086 24.79 24.901 24.864 24.716C24.975 24.494 25.16 24.272 25.456 24.087C25.974 23.828 26.418 23.421 26.751 22.977C26.973 22.57 27.158 22.015 27.158 21.46Z" fill="url(#paint0_linear_26_235)"/>
<defs>
<linearGradient id="paint0_linear_26_235" x1="18.5" y1="34.669" x2="18.5" y2="2.33099" gradientUnits="userSpaceOnUse">
<stop stop-color="#5B4128"/>
<stop offset="0.494792" stop-color="#D4A65B"/>
<stop offset="1" stop-color="#FFEFA6"/>
</linearGradient>
</defs>
</svg>
