<svg width="37" height="37" viewBox="0 0 37 37" fill="none" xmlns="http://www.w3.org/2000/svg">
<path d="M18.5001 1.85001C9.29943 1.85001 1.8501 9.29934 1.8501 18.5C1.8501 27.7007 9.29943 35.15 18.5001 35.15C27.7008 35.15 35.1501 27.7007 35.1501 18.5C35.1501 9.29934 27.7008 1.85001 18.5001 1.85001ZM18.8701 8.88001C20.1034 8.88001 21.1148 9.87901 21.1148 11.1247C21.1148 12.358 20.1158 13.3693 18.8701 13.3693C17.6244 13.3693 16.6254 12.3703 16.6254 11.1247C16.6254 9.87901 17.6368 8.88001 18.8701 8.88001ZM22.1878 26.677C22.1878 27.0593 21.8671 27.38 21.4848 27.38H16.2431C15.8608 27.38 15.5401 27.0717 15.5401 26.677V25.2833C15.5401 24.901 15.8484 24.5803 16.2431 24.5803H17.1311V17.575H16.2431C15.8608 17.575 15.5401 17.2667 15.5401 16.872V15.466C15.5401 15.0837 15.8484 14.763 16.2431 14.763H19.8938C20.2761 14.763 20.5968 15.0713 20.5968 15.466V24.5803H21.4848C21.8671 24.5803 22.1878 24.8887 22.1878 25.2833V26.677Z" fill="url(#paint0_linear_26_234)"/>
<defs>
<linearGradient id="paint0_linear_26_234" x1="18.5001" y1="35.15" x2="18.5001" y2="1.85001" gradientUnits="userSpaceOnUse">
<stop stop-color="#5B4128"/>
<stop offset="0.494792" stop-color="#D4A65B"/>
<stop offset="1" stop-color="#FFEFA6"/>
</linearGradient>
</defs>
</svg>
