<svg width="37" height="37" viewBox="0 0 37 37" fill="none" xmlns="http://www.w3.org/2000/svg">
<path d="M18.5001 1.85001C9.29943 1.85001 1.8501 9.29934 1.8501 18.5C1.8501 27.7007 9.29943 35.15 18.5001 35.15C27.7008 35.15 35.1501 27.7007 35.1501 18.5C35.1501 9.29934 27.7008 1.85001 18.5001 1.85001ZM26.2701 28.6627C25.4684 29.4397 24.2474 29.9207 22.2741 30.044C18.8948 30.266 15.4661 26.4673 12.8884 22.015C10.3231 17.538 8.75676 12.6787 10.6314 9.86667C11.7291 8.22634 12.7528 7.41234 13.8258 7.10401C14.5658 6.89434 16.1691 6.70934 16.2184 7.99201C16.2924 9.63234 16.5761 10.8287 17.3038 13.061C17.8341 14.7013 14.1218 14.9233 14.3931 15.9963C14.7631 17.4517 15.3674 18.8577 16.1568 20.1403C16.8721 21.4723 17.7848 22.681 18.8578 23.7417C19.6594 24.5063 21.7068 21.4107 22.8661 22.6933C24.4324 24.4323 25.3204 25.271 26.7141 26.159C27.7871 26.8373 26.8251 28.12 26.2701 28.6627Z" fill="url(#paint0_linear_26_236)"/>
<defs>
<linearGradient id="paint0_linear_26_236" x1="18.5001" y1="35.15" x2="18.5001" y2="1.85001" gradientUnits="userSpaceOnUse">
<stop stop-color="#5B4128"/>
<stop offset="0.494792" stop-color="#D4A65B"/>
<stop offset="1" stop-color="#FFEFA6"/>
</linearGradient>
</defs>
</svg>
