<svg width="65" height="65" viewBox="0 0 65 65" fill="none" xmlns="http://www.w3.org/2000/svg">
<circle cx="32.5" cy="32.5" r="31.5" fill="#070707" stroke="url(#paint0_linear_73_1162)" stroke-width="2"/>
<path d="M31.4216 36.1445L18.2968 28.6442L31.4216 21.1439V21.1442C31.7836 20.9519 32.2171 20.9519 32.5788 21.1442L45.7035 28.6445L32.5788 36.1448V36.1445C32.2202 36.3489 31.7804 36.3489 31.4216 36.1445ZM33.7145 38.1481C32.6504 38.7476 31.3503 38.7476 30.2862 38.1481L17 30.5624V42.9053C17 43.2124 17.1219 43.5065 17.3391 43.7237C17.556 43.9406 17.8504 44.0625 18.1572 44.0625H45.8431C46.1499 44.0625 46.4443 43.9406 46.6612 43.7237C46.8781 43.5065 47 43.2124 47 42.9053V30.5624L33.7145 38.1481Z" fill="url(#paint1_linear_73_1162)"/>
<defs>
<linearGradient id="paint0_linear_73_1162" x1="32.5" y1="65" x2="32.5" y2="0" gradientUnits="userSpaceOnUse">
<stop stop-color="#5B4128"/>
<stop offset="0.494792" stop-color="#D4A65B"/>
<stop offset="1" stop-color="#FFEFA6"/>
</linearGradient>
<linearGradient id="paint1_linear_73_1162" x1="32" y1="44.0625" x2="32" y2="21" gradientUnits="userSpaceOnUse">
<stop stop-color="#5B4128"/>
<stop offset="0.494792" stop-color="#D4A65B"/>
<stop offset="1" stop-color="#FFEFA6"/>
</linearGradient>
</defs>
</svg>
