<svg width="65" height="65" viewBox="0 0 65 65" fill="none" xmlns="http://www.w3.org/2000/svg">
<circle cx="32.5" cy="32.5" r="31.5" fill="url(#paint0_linear_73_1178)" stroke="url(#paint1_linear_73_1178)" stroke-width="2"/>
<path d="M30.7085 41.1991H33.2626C33.4358 41.1991 33.5079 41.127 33.5079 40.9971V39.2944C34.4603 38.9913 35.2395 38.4719 35.86 37.6926C36.5382 36.8413 36.8846 35.9177 36.8846 34.8932C36.8846 34.215 36.7547 33.5657 36.4805 32.9885C36.2064 32.4113 35.8312 31.9351 35.2828 31.5166C34.8355 31.1703 34.4026 30.8961 33.8831 30.6941C33.3781 30.4921 32.8874 30.3189 32.4113 30.2179C32.0072 30.1169 31.6609 30.0159 31.4156 29.9149C31.1703 29.8139 31.0115 29.7128 30.8672 29.6407C30.7662 29.5685 30.6652 29.4675 30.6219 29.3954C30.5931 29.3232 30.5931 29.2655 30.5931 29.2222C30.6219 29.1501 30.7662 29.0491 30.9971 28.9192C31.2424 28.7893 31.5455 28.7172 31.9495 28.7172C32.2237 28.7172 32.4545 28.7893 32.7287 28.8903C33.0029 29.0202 33.176 29.1934 33.2338 29.4387C33.2626 29.5397 33.3348 29.6118 33.4358 29.6118C33.4646 29.6118 33.5079 29.6118 33.5079 29.583L36.4805 28.6306C36.6104 28.6017 36.6537 28.5007 36.6104 28.3564C36.3651 27.6349 35.9899 27.0289 35.4127 26.4805C34.8355 25.9322 34.1861 25.557 33.4069 25.355V23.6522C33.4069 23.5801 33.3781 23.5224 33.3348 23.4791C33.3059 23.4502 33.2338 23.4069 33.1616 23.4069H30.6075C30.5354 23.4069 30.5065 23.4358 30.4343 23.4791C30.4055 23.5079 30.3622 23.5801 30.3622 23.6522V25.3261C29.7128 25.4993 29.1356 25.7734 28.6306 26.1486C28.1255 26.5238 27.7071 26.9711 27.404 27.5051C27.1299 28.0101 26.9567 28.5584 26.9567 29.1789C26.9567 30.5065 27.5051 31.6032 28.5873 32.4113C28.9336 32.6854 29.3377 32.8874 29.785 33.0895C30.2323 33.2915 30.7807 33.4646 31.3867 33.6378C32.2092 33.8398 32.7431 34.0851 33.0173 34.316C33.0895 34.3882 33.1472 34.4892 33.1472 34.5613C33.1472 34.6335 33.176 34.7345 33.176 34.8644C33.176 35.1097 33.0462 35.3405 32.8009 35.5859C32.5556 35.8312 32.2237 35.9322 31.8485 35.9322C31.5022 35.9322 31.1703 35.8312 30.925 35.658C30.6508 35.4848 30.5209 35.254 30.5209 34.9798C30.5209 34.9076 30.4921 34.8788 30.4488 34.8066C30.4199 34.7778 30.3478 34.7345 30.2756 34.7345H27.1732C27 34.7345 26.9279 34.8066 26.9279 34.9365C26.9279 35.4127 27 35.8889 27.1732 36.3362C27.3463 36.7836 27.5772 37.1876 27.8514 37.5628C28.1544 37.938 28.5007 38.2843 28.9048 38.5584C29.3088 38.8326 29.785 39.0635 30.3045 39.2078V40.8817C30.5065 41.127 30.5786 41.1991 30.7085 41.1991ZM32.0072 20.0014C35.7157 20.0014 39.1356 21.6753 41.2424 24.6046L38.7172 25.3261L44.9221 31.2857L47 22.9307L44.2439 23.71C41.6176 19.5108 37.0144 17 32.0072 17C24.0707 17 17.5916 23.2338 17.5916 31.5599H20.5642C20.5498 25.0087 25.7013 20.0014 32.0072 20.0014ZM32.0072 44.7056C28.2987 44.7056 24.8499 42.8586 22.6999 39.8716L25.254 39.1212L19.0779 33.1905L17 41.5455L19.6984 40.7662C22.3247 45.0231 26.9278 47.6926 32.0072 47.6926C39.9437 47.6926 46.4228 41.0837 46.4228 33.3492H43.4502C43.4646 39.2944 38.3131 44.7056 32.0072 44.7056Z" fill="#070707"/>
<defs>
<linearGradient id="paint0_linear_73_1178" x1="32.5" y1="65" x2="32.5" y2="0" gradientUnits="userSpaceOnUse">
<stop stop-color="#5B4128"/>
<stop offset="0.494792" stop-color="#D4A65B"/>
<stop offset="1" stop-color="#FFEFA6"/>
</linearGradient>
<linearGradient id="paint1_linear_73_1178" x1="32.5" y1="65" x2="32.5" y2="0" gradientUnits="userSpaceOnUse">
<stop stop-color="#5B4128"/>
<stop offset="0.494792" stop-color="#D4A65B"/>
<stop offset="1" stop-color="#FFEFA6"/>
</linearGradient>
</defs>
</svg>
